PathFileType	4	(X/Y/Z)	C:\Users\Basilio\Documents\Thesis Gigler\squatting_fais\c3dfiles\040\SJ_pre3\markers_experimental.trc
DataRate	CameraRate	NumFrames	NumMarkers	Units	OrigDataRate	OrigDataStartFrame	OrigNumFrames
200.000000	200.000000	4	63	mm	200.000000	1094	1251
Frame#	Time	FHD			LBHD			RBHD			C7			T10			CLAV			LSHO			LUUPA			LMUPA			LDUPA			LLEP			LMEP			LRAD			LUL			LRFIN			RSHO			RUPA1			RMUPA			RDUPA			RLEP			RMEP			RRAD			RUL			RUFIN			LASI			RASI			USACR			LSACR			RSACR			LTHI1			LTHI2			LTHI3			LTHI4			LLFC			LMFC			LTIB1			LTIB2			LTIB3			LTIB4			LLMAL			LMMAL			LHEE			LMT1			LMT2			LMT5			RTHI			RTHI2			RTHI3			RTHI4			RLFC			RMFC			RTIB1			RTIB2			RTIB3			RTIB4			RLMAL			RMMAL			RHEE			RMT1			RMT2			RMT5			*61			*62			
		X1	Y1	Z1	X2	Y2	Z2	X3	Y3	Z3	X4	Y4	Z4	X5	Y5	Z5	X6	Y6	Z6	X7	Y7	Z7	X8	Y8	Z8	X9	Y9	Z9	X10	Y10	Z10	X11	Y11	Z11	X12	Y12	Z12	X13	Y13	Z13	X14	Y14	Z14	X15	Y15	Z15	X16	Y16	Z16	X17	Y17	Z17	X18	Y18	Z18	X19	Y19	Z19	X20	Y20	Z20	X21	Y21	Z21	X22	Y22	Z22	X23	Y23	Z23	X24	Y24	Z24	X25	Y25	Z25	X26	Y26	Z26	X27	Y27	Z27	X28	Y28	Z28	X29	Y29	Z29	X30	Y30	Z30	X31	Y31	Z31	X32	Y32	Z32	X33	Y33	Z33	X34	Y34	Z34	X35	Y35	Z35	X36	Y36	Z36	X37	Y37	Z37	X38	Y38	Z38	X39	Y39	Z39	X40	Y40	Z40	X41	Y41	Z41	X42	Y42	Z42	X43	Y43	Z43	X44	Y44	Z44	X45	Y45	Z45	X46	Y46	Z46	X47	Y47	Z47	X48	Y48	Z48	X49	Y49	Z49	X50	Y50	Z50	X51	Y51	Z51	X52	Y52	Z52	X53	Y53	Z53	X54	Y54	Z54	X55	Y55	Z55	X56	Y56	Z56	X57	Y57	Z57	X58	Y58	Z58	X59	Y59	Z59	X60	Y60	Z60	X61	Y61	Z61	X62	Y62	Z62	X63	Y63	Z63	

1095	5.47	-262.7359619140626	1754.028564453125	-920.1729736328127	-386.7142333984376	1692.686279296875	-947.9400024414065	-418.3044433593751	1645.30224609375	-812.7327880859377	-432.8482666015626	1541.294555664063	-879.9980468750002	-486.2860107421876	1219.854125976563	-884.9253540039065	-312.6529846191407	1459.607055664063	-875.0843505859377	-334.3031616210938	1513.153442382813	-1049.15869140625	-385.8004455566407	1387.714111328125	-1212.234130859375	-378.2351074218751	1339.482177734375	-1203.134887695313	-406.9424743652345	1337.744995117188	-1256.289672851563	-435.6559448242189	1292.18798828125	-1299.813842773438	-506.2979736328126	1299.484375	-1271.657104492188	-475.2781982421876	1075.886962890625	-1101.012451171875	-430.7810363769532	1040.262573242188	-1148.592529296875	-423.449188232422	1082.58544921875	-1057.5947265625	-346.1678161621094	1493.862182617188	-702.0478515625001	-452.1122131347657	1413.627807617188	-547.0594482421876	-432.321746826172	1368.651123046875	-534.7277221679689	-478.5820312500001	1373.362915039063	-495.9415588378907	-493.7935180664064	1315.604370117188	-451.805633544922	-562.6089477539064	1299.715576171875	-501.0827026367189	-422.3085021972657	1122.345458984375	-651.7432250976564	-392.988494873047	1080.8115234375	-595.0729980468751	-362.4907836914063	1117.179321289063	-697.5305175781251	-313.7245788574219	1041.712524414063	-982.0740966796877	-310.0857849121094	1041.588745117188	-758.6568603515626	-497.9139099121095	1078.591674804688	-870.1494140625002	-503.5984191894532	1048.212768554688	-895.646423339844	-505.2925720214845	1050.487670898438	-840.7709960937502	-434.2339782714845	790.666442871094	-1070.213623046875	-392.585662841797	724.0035400390626	-1102.70263671875	-347.9601135253907	734.2943115234376	-1112.2705078125	-405.8822021484376	666.1155395507814	-1095.981201171875	-369.1719055175782	543.4143066406251	-1126.228881835938	-344.4391174316407	493.5445861816407	-1004.703430175781	-331.3447570800782	317.5949401855469	-1146.534057617188	-407.4551086425782	290.0674438476563	-1183.194580078125	-364.7851867675782	279.2952575683594	-1177.854125976563	-353.8102111816407	194.1492919921876	-1164.3486328125	-417.3136596679689	101.6270446777344	-1193.400024414063	-376.7948608398438	106.5755615234375	-1111.449096679688	-467.1727294921876	42.76252365112305	-1145.56982421875	-246.5074005126954	60.92094802856447	-1145.410888671875	-251.1976013183594	58.01760482788087	-1191.412475585938	-300.5175170898438	30.48078727722169	-1235.918334960938	-394.8277893066407	789.8298950195315	-662.6074829101564	-360.2142028808594	734.1096801757814	-649.6116943359376	-327.4294128417969	735.7868041992189	-648.5836791992189	-386.4346313476564	654.4038696289064	-658.7891845703126	-379.7310791015626	521.2230834960939	-648.6722412109376	-342.1406860351563	496.603485107422	-773.9322509765627	-357.7661132812501	327.4038391113282	-641.5501098632814	-446.9060363769532	267.6263122558594	-631.7122192382814	-401.7852478027345	254.4416198730469	-628.6145019531251	-386.036346435547	202.8320312500001	-651.4752807617189	-463.4706115722657	101.6332473754883	-636.3016357421876	-417.4490356445314	102.3272018432617	-714.6434326171876	-505.8356018066407	45.94316482543946	-704.7655639648439	-295.6755065917969	58.33132171630861	-628.8716430664064	-312.2183532714844	60.51721572875978	-592.6274414062501	-368.8617553710938	36.63628387451173	-556.9317016601564	nan	nan	nan	nan	nan	nan	
1096	5.475000000000001	-263.0625000000001	1753.802490234375	-919.5030517578127	-387.1504211425782	1692.56787109375	-947.3281250000002	-418.7166137695314	1644.956298828125	-812.0058593750002	-433.067352294922	1540.940795898438	-879.4086914062502	-486.5184936523439	1219.674072265625	-884.2905273437502	-313.0309753417969	1459.283325195313	-874.478210449219	-334.7981872558594	1513.03515625	-1048.423706054688	-386.2212219238282	1387.498413085938	-1211.621459960938	-378.4400024414063	1339.273559570313	-1202.599975585938	-407.2546997070314	1337.507202148438	-1255.618286132813	-435.952850341797	1291.9951171875	-1299.193237304688	-506.744842529297	1299.41162109375	-1271.0830078125	-475.6400451660157	1075.753173828125	-1100.448120117188	-431.0423278808595	1040.11279296875	-1148.02294921875	-423.7081604003907	1082.424682617188	-1056.990234375	-346.4738769531251	1493.525146484375	-701.5609741210939	-452.483612060547	1413.343627929688	-546.5897216796876	-432.5744018554689	1368.554443359375	-533.6415405273439	-478.4248352050782	1373.153564453125	-495.1047363281251	-493.2724609375001	1315.632690429688	-450.3423461914064	-562.4936523437501	1299.336181640625	-500.2308959960939	-421.8303527832032	1122.356811523438	-651.0499877929689	-392.620574951172	1080.887939453125	-594.5661621093751	-362.2853698730469	1117.136596679688	-696.9508666992189	-313.7583618164063	1041.904052734375	-981.7012329101565	-309.9353332519532	1041.775146484375	-758.1759643554689	-497.9916076660157	1078.157470703125	-869.2854003906252	-503.4590454101564	1047.752075195313	-894.9904785156252	-505.2225646972657	1050.031860351563	-840.1889648437502	-433.8503723144532	790.593933105469	-1069.811401367188	-391.9727478027345	723.9438476562501	-1102.164794921875	-347.4623107910157	734.2741699218751	-1111.755004882813	-405.4879760742189	666.1904907226564	-1095.586669921875	-368.8237609863282	543.5098876953126	-1125.873046875	-344.2546691894532	493.4302062988282	-1004.5322265625	-331.2192077636719	317.5633850097657	-1146.381958007813	-407.364227294922	290.0053405761719	-1183.011596679688	-364.7188415527344	279.2071533203126	-1177.5576171875	-353.7305908203126	194.1104431152344	-1164.179077148438	-416.5381469726564	101.5101623535157	-1193.033325195313	-376.8033752441407	106.5781021118164	-1111.44482421875	-467.1444091796876	42.80913162231446	-1145.547973632813	-246.5550689697266	60.96589279174806	-1145.368896484375	-251.2474670410157	58.00231933593751	-1191.372680664063	-300.5224609375001	30.4494800567627	-1235.917114257813	-394.2935791015626	789.4895629882815	-662.2456665039064	-359.2222900390626	734.0112304687501	-649.2779541015626	-326.8460693359376	735.6971435546876	-648.2096557617189	-385.3531799316407	654.5864868164064	-658.2755737304689	-378.7694702148438	520.8953857421876	-648.3996582031251	-341.2614135742188	496.5059509277345	-773.6682739257815	-357.1574707031251	327.5658874511719	-641.3289184570314	-446.2871093750001	267.5811157226563	-631.5936889648439	-401.1710815429689	254.6005401611329	-628.7787475585939	-385.7417297363282	202.7186584472657	-651.4533081054689	-463.3111877441407	101.7167282104492	-636.3856811523439	-417.4892883300782	102.3463363647461	-714.7724609375001	-505.8142700195314	45.89242172241212	-704.8255004882814	-295.8558349609376	58.07679367065431	-628.9710083007814	-312.1477661132813	60.61759185791017	-592.6480712890626	-368.8356018066407	36.74638366699219	-556.9861450195314	nan	nan	nan	nan	nan	nan	
1097	5.48	-263.3443603515626	1753.610595703125	-918.8935546875002	-387.475067138672	1692.476684570313	-946.482360839844	-418.9450073242189	1644.838745117188	-811.349304199219	-433.3541870117189	1540.562622070313	-878.8837890625002	-486.7854614257814	1219.536010742188	-883.668884277344	-313.1702575683594	1459.145629882813	-873.9754028320315	-334.7600402832032	1512.973999023438	-1048.072509765625	-386.4752807617189	1387.348876953125	-1211.16357421875	-379.0052795410157	1339.154541015625	-1202.00390625	-407.7198791503907	1337.373046875	-1255.207763671875	-436.3569641113282	1291.84765625	-1298.6279296875	-507.129608154297	1299.197021484375	-1270.54736328125	-475.8469848632814	1075.634399414063	-1099.751953125	-431.2945556640626	1040.0654296875	-1147.541625976563	-423.9376831054689	1082.314331054688	-1056.415161132813	-346.8622436523438	1493.431518554688	-700.9421386718751	-452.060028076172	1413.15869140625	-545.5994262695314	-432.6558837890626	1368.562133789063	-532.7957153320314	-478.3005981445314	1372.728759765625	-494.3064270019532	-493.322235107422	1315.148803710938	-449.8787536621095	-562.2635498046876	1298.93994140625	-499.2332153320314	-421.641571044922	1122.353515625	-650.3956909179689	-392.4335327148439	1080.831420898438	-593.7265625000001	-362.2515258789063	1117.21923828125	-696.4798583984376	-313.8523254394532	1041.97314453125	-981.2305297851565	-309.7063293457032	1041.807006835938	-757.5893554687501	-498.1883544921876	1077.729614257813	-868.505310058594	-503.2442321777345	1047.373779296875	-894.3336181640627	-505.090057373047	1049.641723632813	-839.5545043945315	-433.4076232910157	790.4997558593752	-1069.358154296875	-391.7698669433595	724.0436401367189	-1101.935424804688	-346.7680358886719	734.0980834960939	-1111.290283203125	-405.1064758300782	666.2456054687501	-1095.317504882813	-368.3967895507813	543.6041870117189	-1125.509765625	-343.9768676757813	493.2607727050782	-1004.257080078125	-331.0719299316407	317.4638061523438	-1146.207397460938	-407.0693359375001	290.0515136718751	-1182.978149414063	-364.4446411132813	279.2134399414063	-1177.426391601563	-353.5243225097657	194.0689697265626	-1164.099731445313	-416.5242614746095	101.5655212402344	-1192.9873046875	-376.6741943359376	106.3945770263672	-1111.425415039063	-467.0850830078126	42.84344863891602	-1145.525756835938	-246.4191589355469	60.82912063598634	-1145.38525390625	-251.2042694091797	58.02294158935548	-1191.4052734375	-300.4627990722657	30.46934127807618	-1235.916381835938	-393.6466674804689	789.257263183594	-661.8379516601564	-358.7387084960938	733.9385986328126	-648.9512329101564	-326.3643188476563	735.5595703125001	-647.9496459960939	-384.498504638672	654.0241699218751	-657.8996582031251	-377.8643493652344	520.7786254882814	-648.1500854492189	-340.2019653320313	496.3728942871095	-773.4368896484377	-356.3844909667969	327.1978149414063	-641.1437377929689	-445.560272216797	267.6120605468751	-631.5828857421876	-400.7696838378907	254.2637329101563	-628.7939453125001	-385.4132080078126	202.7025146484376	-651.5773925781251	-463.1866760253907	101.7930068969727	-636.4347534179689	-417.4495544433595	102.3278274536133	-714.8450927734376	-505.7963867187501	45.88856506347657	-704.7895507812501	-295.7900695800782	58.28770446777345	-629.1263427734376	-312.0417175292969	60.54970550537111	-592.7482299804689	-368.8904724121094	36.92549514770509	-557.0698852539064	nan	nan	nan	nan	nan	nan	
1098	5.485	-263.8780517578126	1753.295166015625	-918.229919433594	-387.8400878906251	1692.234497070313	-945.6296997070315	-419.2313842773439	1644.42236328125	-810.4722290039065	-433.7154846191407	1540.401977539063	-878.2543945312502	-487.0708312988282	1219.296752929688	-883.0422973632815	-313.5451049804688	1459.1787109375	-873.5488891601565	-335.1870727539063	1512.703125	-1047.349731445313	-387.1716918945314	1387.126953125	-1210.380249023438	-379.3190917968751	1338.922485351563	-1201.379760742188	-408.3211364746095	1337.218627929688	-1254.375732421875	-436.8918762207032	1291.691528320313	-1297.943725585938	-507.5932006835939	1299.082885742188	-1269.974853515625	-476.0937500000001	1075.56005859375	-1099.03369140625	-431.6476135253907	1040.074951171875	-1146.929443359375	-424.1697998046876	1082.189575195313	-1055.776733398438	-346.8923645019532	1493.28662109375	-700.3802490234376	-452.3236389160157	1412.758911132813	-545.0028686523439	-432.4412841796876	1368.464721679688	-532.2917480468751	-478.1531677246095	1372.628784179688	-493.5089416503907	-492.9670410156251	1314.817138671875	-448.9530334472657	-562.1237792968751	1298.574951171875	-498.2628784179689	-421.5395507812501	1122.34765625	-649.7560424804689	-391.9764709472657	1080.9130859375	-593.1371459960939	-362.0956726074219	1117.283325195313	-696.0253906250001	-313.8766174316407	1042.008422851563	-980.7703857421877	-309.5592346191407	1041.942260742188	-757.1320190429689	-498.2674865722657	1076.865356445313	-867.863708496094	-503.2176513671876	1046.91162109375	-893.6350097656252	-505.0025024414064	1049.281494140625	-838.802429199219	-432.9648437500001	790.4087524414065	-1068.927124023438	-391.369354248047	724.1030883789064	-1101.4541015625	-346.2942504882813	734.1186523437501	-1110.851440429688	-404.7672729492189	666.3098144531251	-1094.981567382813	-367.9957275390626	543.6384277343751	-1125.145874023438	-343.6987915039063	493.1580200195314	-1003.932922363281	-330.8366699218751	317.3176269531251	-1145.92724609375	-406.7683410644532	290.0258178710938	-1182.786865234375	-364.2728271484376	279.0431518554688	-1177.098022460938	-353.3933105468751	194.1114349365235	-1163.968627929688	-417.1940917968751	101.5851669311524	-1193.345458984375	-376.8375549316407	106.4958419799805	-1111.323608398438	-467.1408691406251	42.84643554687501	-1145.582275390625	-246.4875946044922	60.93115997314455	-1145.370361328125	-251.268783569336	57.98526763916017	-1191.40087890625	-300.4661865234376	30.44354438781739	-1235.927734375	-393.0234680175782	788.9692382812502	-661.4019775390626	-357.9066467285157	733.5695800781251	-648.6882324218751	-325.7711486816407	735.4570922851564	-647.5701904296876	-383.8431701660157	654.0693359375001	-657.7517089843751	-376.9904174804688	520.6945800781251	-647.9423217773439	-339.3610534667969	496.1949768066407	-773.1511840820315	-355.8132324218751	327.1240234375001	-640.8840942382814	-445.1289367675782	267.5109558105469	-631.3858642578126	-400.281463623047	254.1134643554688	-628.7136840820314	-385.0729370117189	202.6517944335938	-651.6470336914064	-463.0547180175782	101.8148498535157	-636.4663085937501	-417.3567199707032	102.29931640625	-714.9951171875001	-505.7708129882814	45.87781524658204	-704.8283691406251	-295.7811889648438	58.31800842285158	-629.2229614257814	-311.9936828613282	60.65650939941408	-592.8746337890626	-368.7716979980469	36.98615264892579	-557.0897827148439	nan	nan	nan	nan	nan	nan	
